HIERARCHY
ROOT Hips
{
  OFFSET 3.13124 94.3669 -3.18751
  CHANNELS  6 Xposition Yposition Zposition Zrotation Xrotation Yrotation
  JOINT LeftUpLeg
  {
    OFFSET 8.64259 1.95398 -2.38835
    CHANNELS 3 Zrotation Xrotation Yrotation
    JOINT LeftLeg
    {
      OFFSET 43.7702 0 0
      CHANNELS 3 Zrotation Xrotation Yrotation
      JOINT LeftFoot
      {
        OFFSET 40.6238 0 0
        CHANNELS 3 Zrotation Xrotation Yrotation
        JOINT LeftToeBase
        {
          OFFSET 12.7242 0 0
          CHANNELS 3 Zrotation Xrotation Yrotation
          End Site
          {
            OFFSET 0 0 0
          }
        }
      }
    }
  }
  JOINT RightUpLeg
  {
    OFFSET -8.2249 1.95398 -2.59336
    CHANNELS 3 Zrotation Xrotation Yrotation
    JOINT RightLeg
    {
      OFFSET 43.5653 0 0
      CHANNELS 3 Zrotation Xrotation Yrotation
      JOINT RightFoot
      {
        OFFSET 40.6238 0 0
        CHANNELS 3 Zrotation Xrotation Yrotation
        JOINT RightToeBase
        {
          OFFSET 12.7242 0 0
          CHANNELS 3 Zrotation Xrotation Yrotation
          End Site
          {
            OFFSET 0 0 0
          }
        }
      }
    }
  }
  JOINT Spine
  {
    OFFSET 0.165834 0.87714 6.61349
    CHANNELS 3 Zrotation Xrotation Yrotation
    JOINT Spine1
    {
      OFFSET 7.38962 1.71661e-005 0
      CHANNELS 3 Zrotation Xrotation Yrotation
      JOINT Spine2
      {
        OFFSET 11.9445 1.14441e-005 0
        CHANNELS 3 Zrotation Xrotation Yrotation
        JOINT Spine3
        {
          OFFSET 14.7254 4.19617e-005 0
          CHANNELS 3 Zrotation Xrotation Yrotation
          JOINT Spine4
          {
            OFFSET 10.9679 0 0
            CHANNELS 3 Zrotation Xrotation Yrotation
            JOINT RightShoulder
            {
              OFFSET 2.46616 -1.6653 3.69651
              CHANNELS 3 Zrotation Xrotation Yrotation
              JOINT RightArm
              {
                OFFSET 13.0012 0 0
                CHANNELS 3 Zrotation Xrotation Yrotation
                JOINT RightForeArm
                {
                  OFFSET 28.7848 1.52588e-005 0
                  CHANNELS 3 Zrotation Xrotation Yrotation
                  JOINT RightHand
                  {
                    OFFSET 26.5688 1.52588e-005 0
                    CHANNELS 3 Zrotation Xrotation Yrotation
                    End Site
                    {
                      OFFSET 0 0 0
                    }
                  }
                }
              }
            }
            JOINT LeftShoulder
            {
              OFFSET 2.38034 -1.29275 -3.75231
              CHANNELS 3 Zrotation Xrotation Yrotation
              JOINT LeftArm
              {
                OFFSET 16.3182 6.10352e-005 0
                CHANNELS 3 Zrotation Xrotation Yrotation
                JOINT LeftForeArm
                {
                  OFFSET 27.0901 0 0
                  CHANNELS 3 Zrotation Xrotation Yrotation
                  JOINT LeftHand
                  {
                    OFFSET 24.5451 1.52588e-005 0
                    CHANNELS 3 Zrotation Xrotation Yrotation
                    End Site
                    {
                      OFFSET 0 0 0
                    }
                  }
                }
              }
            }
            JOINT Neck
            {
              OFFSET 5.0226 -0.0266342 0
              CHANNELS 3 Zrotation Xrotation Yrotation
              JOINT Head
              {
                OFFSET 6.69363 2.86102e-005 0
                CHANNELS 3 Zrotation Xrotation Yrotation
                End Site
                {
                  OFFSET 0 0 0
                }
              }
            }
          }
        }
      }
    }
  }
}
MOTION
Frames:	15
Frame Time:	0.0333333
-89.7465 95.5531 -113.936 -95.3092 -76.2999 -101.233 -172.56 20.8919 92.7451 -50.2785 -0.0806193 7.23206 9.91642 1.43757 -0.500161 28.7808 4.99995e-006 2.59123e-006 -177.925 7.443 92.0659 -5.97884 32.2829 2.26502 53.1568 -1.75586 -0.953486 28.7808 1.568e-005 2.62151e-005 0.178402 9.10214 -86.3926 8.60812 1.66515 5.07874 -3.07138 1.88677 5.00081 -25.5271 0.0641962 5.34368 -5.51449 0.0642065 5.34368 100.955 36.6582 -66.2205 31.2359 50.0354 -108.244 -3.29968 -0.122022 -28.9036 -5.37983 -0.320018 -0.0162405 -97.4314 -37.7775 63.146 37.8357 28.5859 -87.6855 -8.98548 16.3933 -54.2696 -57.2878 7.93861 -19.7472 67.7623 18.5608 0.234004 -50.9739 13.2399 7.15645 
-88.4067 93.1361 -114.421 -99.0577 -75.3629 -107.647 -176.01 24.6481 92.1837 -50.9912 -1.03126 12.2033 14.8462 4.15373 3.43478 28.7808 4.99995e-006 2.59123e-006 -179.64 17.1115 88.8484 -27.3348 28.8416 1.71812 66.119 3.48836 1.88595 28.7808 1.568e-005 2.62151e-005 -0.0991588 9.9127 -86.2372 6.99732 1.31324 4.7869 -4.68153 1.52243 4.72467 -27.1459 -0.184202 4.95996 -7.13329 -0.184197 4.95996 102.012 37.2037 -78.5549 26.2994 41.2667 -109.106 -3.28963 -0.0949896 -23.5862 -5.37983 -0.320018 -0.0162405 -98.0331 -38.073 62.2776 36.1684 26.429 -91.3015 -4.82573 19.6391 -54.5721 -58.4217 9.65971 -22.5738 71.6114 17.579 1.16707 -52.1159 10.0353 9.4506 
-87.0792 90.5205 -114.768 -101.399 -75.4065 -111.509 -178.14 28.2161 94.2734 -45.7143 -6.47275 13.9234 14.8208 3.89217 3.10149 28.7808 4.99995e-006 2.59123e-006 -179.845 22.9557 86.6119 -39.3572 26.5326 1.43127 72.8442 4.91424 2.11843 28.7808 1.568e-005 2.62151e-005 -0.33457 10.5792 -86.6605 5.67485 0.868719 4.21287 -6.00251 1.05312 4.17064 -28.483 -0.436339 4.27919 -8.47033 -0.436335 4.27918 102.978 36.687 -89.4781 21.7557 30.7194 -104.508 -3.28112 -0.0625461 -17.3971 -5.37983 -0.320018 -0.0162405 -97.4644 -36.9781 62.7468 34.6115 25.5531 -95.7336 -6.7919 19.289 -54.0335 -57.2575 7.58839 -19.1038 73.5541 14.1005 -0.766345 -52.4367 6.09916 14.038 
-85.5238 88.0527 -114.809 -104.478 -75.402 -115.681 -177.596 29.8759 96.1671 -38.9553 -1.40477 13.6646 10.3738 2.19408 0.678697 28.7808 4.99995e-006 2.59123e-006 -179.579 26.1876 84.5606 -46.8304 26.3604 1.32022 79.6728 7.47911 2.64442 28.7808 1.568e-005 2.62151e-005 -0.491592 11.7108 -87.038 3.41948 0.444997 4.06565 -8.25765 0.623365 4.04219 -30.743 -0.796451 4.01173 -10.7303 -0.796447 4.01172 102.336 28.5133 -84.894 19.3072 23.5044 -107.037 -3.27661 -0.0338422 -12.0338 -5.37983 -0.320018 -0.0162405 -90.0742 -26.7302 71.9818 31.8892 18.827 -106.037 -6.30387 18.5472 -55.0297 -52.552 7.35601 -20.1929 82.7919 5.75959 -7.20901 -53.9314 1.36886 19.9058 
-83.8335 85.8768 -114.607 -105.73 -75.3457 -117.42 -176.253 30.6546 98.6222 -29.9485 -2.56205 10.9175 3.7511 0.590747 -2.13026 28.7808 4.99995e-006 2.59123e-006 -178.982 29.5986 82.8139 -53.6727 25.89 1.18041 83.4124 9.04053 2.84519 28.7808 1.568e-005 2.62151e-005 -0.524877 12.3861 -87.7083 2.08436 -0.000735174 3.46028 -9.59116 0.151466 3.45696 -32.092 -1.0401 3.30044 -12.0793 -1.0401 3.30044 101.779 20.2994 -88.3511 19.308 17.8448 -96.0674 -3.2797 -0.056413 -16.2252 -5.37983 -0.320018 -0.0162405 -87.0822 -21.5616 76.3285 30.9652 15.5651 -110.175 -7.68894 16.6632 -55.6722 -48.2443 7.20261 -21.5 83.6004 0.743853 -10.1392 -50.0918 -1.50807 24.5926 
-81.7527 84.2745 -114.027 -104.53 -74.2981 -117.106 -175.105 29.4287 100.22 -21.7376 -6.49332 8.78904 -2.18853 0.159487 -3.41024 28.7808 4.99995e-006 2.59123e-006 -178.048 32.0434 80.1644 -58.2088 24.029 0.961853 86.4269 9.85626 2.78727 28.7808 1.568e-005 2.62151e-005 -0.596032 11.9573 -88.692 2.9538 -0.675436 2.04776 -8.71866 -0.584674 2.07547 -31.245 -1.25955 1.75023 -11.2323 -1.25954 1.75023 98.8637 14.1861 -107.695 22.9735 16.3564 -75.7027 -3.275 0.00647103 -4.59164 -5.37983 -0.320018 -0.0162405 -95.4704 -33.833 64.7952 36.9763 22.1146 -98.8779 -8.22036 17.8828 -55.6875 -42.7341 8.03997 -26.3427 71.2556 4.99261 -5.03323 -41.8518 -0.115068 22.0655 
-79.4868 82.9617 -113.169 -101.388 -73.1883 -114.66 -174.48 27.9737 100.955 -17.7599 -4.45126 8.93822 -2.7769 0.299611 -3.18367 28.7808 4.99995e-006 2.59123e-006 -176.834 34.4965 77.4989 -61.87 22.5032 0.781447 88.6139 11.3475 3.00514 28.7808 1.568e-005 2.62151e-005 -0.824925 12.2271 -89.1871 2.42127 -1.44514 1.39974 -9.24969 -1.38214 1.46196 -31.7884 -1.79899 0.900662 -11.7757 -1.79897 0.900681 97.2631 6.09246 -106.519 23.2777 22.7353 -69.6829 -3.27478 0.00468656 -4.91075 -5.37983 -0.320018 -0.0162405 -94.2055 -32.0264 66.2853 33.7116 21.3769 -95.9295 -11.4035 21.8105 -50.9626 -28.2045 7.3408 -35.7769 70.4819 2.83234 -9.36428 -39.3974 0.363087 26.8379 
-77.0791 82.0431 -112.291 -92.182 -70.4573 -105.63 -173.428 27.7682 103.136 -15.4727 -7.55314 8.74716 -1.35811 -0.233268 -4.04268 28.7808 4.99995e-006 2.59123e-006 -175.618 38.361 75.7365 -63.7324 19.9765 0.562569 89.2731 11.0594 2.8362 28.7808 1.568e-005 2.62151e-005 -0.989355 12.2956 -89.4672 2.28376 -1.85076 0.844268 -9.38619 -1.8118 0.924915 -31.9316 -2.01891 0.248799 -11.919 -2.0189 0.2488 96.1294 -1.32708 -105.062 22.575 30.6669 -63.9433 -3.27489 0.00506204 -4.85228 -5.37983 -0.320018 -0.0162405 -92.4416 -29.0614 68.3081 31.9832 19.2507 -92.3147 3.8945 29.6868 -56.9036 -16.0001 3.11502 -30.5516 69.624 2.47159 -12.4407 -37.6098 2.43348 28.5058 
-74.7369 81.2832 -111.063 -83.1141 -68.3238 -97.2847 -172.489 27.6555 104.282 -14.4098 -2.2672 9.22596 1.97222 -0.896844 -4.85044 28.7808 4.99995e-006 2.59123e-006 -173.889 42.442 73.1246 -64.9414 19.0593 0.472211 90.0125 12.8585 3.28652 28.7808 1.568e-005 2.62151e-005 -1.22349 12.2291 -89.7922 2.41051 -2.38186 0.141929 -9.25829 -2.3733 0.24668 -31.8103 -2.31434 -0.580881 -11.7976 -2.31433 -0.580868 96.3896 -8.73156 -100.085 21.0261 39.5434 -61.9776 -3.2728 -0.00263245 -6.06763 -5.37983 -0.320018 -0.0162405 -91.6734 -25.8515 68.437 30.8555 18.2495 -86.4125 20.2019 29.7712 -66.1372 -5.1114 0.239451 -19.0716 66.3431 3.30423 -15.6389 -34.2936 5.22148 31.9054 
-72.5385 80.5058 -109.537 -71.8285 -66.262 -87.7389 -171.957 28.4656 104.926 -12.1932 -1.76901 8.43688 4.9799 -0.20987 -3.30843 28.7808 4.99995e-006 2.59123e-006 -170.864 47.9107 69.0155 -66.4983 20.1343 0.51195 89.9256 14.8615 3.89881 28.7808 1.568e-005 2.62151e-005 -1.50973 11.9702 -90.0811 2.92248 -3.03339 -0.339052 -8.74495 -3.04537 -0.205107 -31.3047 -2.79115 -1.23571 -11.292 -2.79115 -1.23573 97.8464 -16.9824 -93.2673 22.0861 42.2998 -48.8894 -3.324 -0.16484 -38.1009 -5.37983 -0.320018 -0.0162405 -91.519 -23.7019 67.7865 22.455 18.3822 -75.8649 42.9365 33.786 -73.8298 -0.626724 -0.159663 -7.98058 63.3741 4.48417 -19.5706 -32.838 7.98487 36.5116 
-70.7326 79.7005 -107.74 -63.8713 -64.7036 -81.8397 -170.617 29.1664 104.959 -11.6789 4.86655 7.21643 10.6077 -1.05082 -4.07334 28.7808 4.99995e-006 2.59123e-006 -167.402 51.7473 64.2695 -67.7418 23.9962 0.758164 90.7549 17.5481 4.54871 28.7808 1.568e-005 2.62151e-005 -2.07947 11.8977 -90.1631 3.06397 -4.18014 -0.426737 -8.60027 -4.19487 -0.24202 -31.1826 -3.85835 -1.66512 -11.17 -3.85835 -1.66513 99.1673 -26.9711 -88.5118 24.1868 46.0979 -49.4211 -3.35783 -0.212 -48.7296 -5.37983 -0.320018 -0.0162405 -90.762 -23.9262 69.4409 7.85994 14.2899 -61.7616 41.7398 30.5365 -68.8662 2.25086 -0.236326 -7.83948 60.5828 5.99173 -24.8442 -31.4333 11.6719 42.1543 
-68.9763 79.0194 -106.093 -59.804 -61.7929 -78.768 -169.971 28.2438 104.883 -13.0282 19.8479 10.1355 20.4416 -1.40253 -3.55462 28.7808 4.99995e-006 2.59123e-006 -164.626 55.0169 61.0849 -68.5076 25.8676 0.882033 90.6403 19.0014 4.99397 28.7808 1.568e-005 2.62151e-005 -2.59334 11.9691 -90.2128 2.93538 -5.28422 -0.206741 -8.72479 -5.28817 0.0266896 -31.339 -4.97715 -1.78925 -11.3263 -4.97716 -1.78927 99.9095 -34.8591 -86.3401 26.6075 44.2819 -46.8151 -3.41459 -0.283391 -63.5052 -5.37983 -0.320018 -0.0162405 -89.5317 -26.2815 72.8941 -3.95726 3.60075 -48.1154 56.305 31.2357 -71.4877 0.466465 0.00526095 -2.03957 55.9148 8.73601 -29.2625 -29.3019 15.6339 47.5512 
-67.5492 78.357 -104.625 -58.2033 -60.3455 -77.9317 -169.746 29.1449 105.099 -14.7309 19.1913 10.0114 26.9413 -3.88077 -5.80118 28.7808 4.99995e-006 2.59123e-006 -161.939 56.5575 57.6997 -69.6288 27.5167 0.973626 90.4734 21.2488 5.70495 28.7808 1.568e-005 2.62151e-005 -3.22957 12.1201 -89.963 2.60438 -6.21028 -0.267638 -9.05165 -6.21601 0.007028 -31.6959 -5.84172 -2.12811 -11.6832 -5.84174 -2.12812 99.8956 -37.3976 -86.2047 27.8617 39.1601 -36.5681 -3.51128 -0.169273 -79.7768 -5.37983 -0.320018 -0.0162405 -87.8946 -28.8591 77.01 -9.97275 -8.14356 -41.1602 68.3361 39.2413 -75.8413 7.74394 1.32261 11.7776 51.1877 11.9599 -29.1408 -26.97 18.2072 47.8127 
-65.7916 78.1465 -103.264 -56.9654 -58.4933 -76.5883 -169.77 31.2668 105.871 -16.1548 14.0705 8.62027 30.5932 -5.32201 -6.88475 28.7808 4.99995e-006 2.59123e-006 -160.67 57.49 55.9146 -68.8251 27.49 0.983875 90.2743 22.6884 6.19364 28.7808 1.568e-005 2.62151e-005 -3.40004 12.2877 -89.8201 2.24019 -6.28526 -0.449233 -9.4155 -6.29891 -0.171056 -32.0602 -5.85869 -2.32384 -12.0475 -5.85868 -2.32386 98.2582 -38.5456 -89.0934 28.5734 33.3582 -27.0847 -3.56781 -0.500285 -91.9398 -5.37983 -0.320018 -0.0162405 -84.9203 -27.7965 82.6116 -14.1634 -13.4366 -40.5744 89.7719 51.5743 -88.0431 1.62937 0.411655 9.34448 50.9903 12.7478 -27.7177 -26.9609 18.6578 44.7504 
-64.1126 78.0814 -102.03 -57.7746 -57.87 -76.8002 -169.899 33.7229 106.334 -18.9844 9.87042 7.22351 33.5787 -6.76128 -7.92814 28.7808 4.99995e-006 2.59123e-006 -160.158 57.0903 54.7438 -68.5101 28.6263 1.07904 88.3237 24.4215 7.21941 28.7808 1.568e-005 2.62151e-005 -3.31074 12.448 -89.6898 1.89233 -5.85953 -0.699774 -9.7654 -5.88462 -0.440311 -32.3922 -5.37758 -2.43332 -12.3796 -5.37759 -2.43331 96.2935 -38.3145 -92.6665 29.3253 26.0976 -18.1471 -3.61998 -0.230599 -103.937 -5.37983 -0.320018 -0.0162405 -84.4497 -25.996 83.1688 -11.3881 -11.3346 -35.5569 60.8773 57.9485 -68.5962 -5.03793 -0.250026 0.720817 49.9119 12.1959 -26.4985 -26.515 17.5218 43.8801 
